<svg width="48" height="48" viewBox="0 0 48 48" fill="none" xmlns="http://www.w3.org/2000/svg">
<path d="M24 42.5V18.57C23.9999 17.9034 24.1314 17.2433 24.3868 16.6275C24.6423 16.0117 25.0166 15.4524 25.4885 14.9814C25.9603 14.5105 26.5204 14.1373 27.1367 13.8831C27.753 13.6289 28.4133 13.4987 29.08 13.5C31.57 13.5 33.13 14.24 34.2 15.62M19.7 23.29H29.85" stroke="white" stroke-linecap="round" stroke-linejoin="round"/>
<path d="M7.47998 5.5C6.94955 5.5 6.44084 5.71071 6.06577 6.08579C5.69069 6.46086 5.47998 6.96957 5.47998 7.5V40.5C5.47998 41.0304 5.69069 41.5391 6.06577 41.9142C6.44084 42.2893 6.94955 42.5 7.47998 42.5H40.52C41.0504 42.5 41.5591 42.2893 41.9342 41.9142C42.3093 41.5391 42.52 41.0304 42.52 40.5V7.5C42.52 6.96957 42.3093 6.46086 41.9342 6.08579C41.5591 5.71071 41.0504 5.5 40.52 5.5H7.47998Z" stroke="white" stroke-linecap="round" stroke-linejoin="round"/>
</svg>
