<svg width="48" height="52" viewBox="0 0 48 52" fill="none" xmlns="http://www.w3.org/2000/svg">
<path d="M33 20.5833L24 31.4166L15 20.5833H33Z" stroke="white" stroke-linecap="round" stroke-linejoin="round"/>
<path d="M43.5 40.625V11.375C43.5 10.8003 43.2893 10.2492 42.9142 9.84292C42.5391 9.43659 42.0304 9.20831 41.5 9.20831H6.5C5.96957 9.20831 5.46086 9.43659 5.08579 9.84292C4.71071 10.2492 4.5 10.8003 4.5 11.375V40.625C4.5 41.1996 4.71071 41.7507 5.08579 42.157C5.46086 42.5634 5.96957 42.7916 6.5 42.7916H41.5C42.0304 42.7916 42.5391 42.5634 42.9142 42.157C43.2893 41.7507 43.5 41.1996 43.5 40.625Z" stroke="white" stroke-linecap="round" stroke-linejoin="round"/>
</svg>
