<svg width="32" height="27" viewBox="0 0 32 27" fill="none" xmlns="http://www.w3.org/2000/svg">
<path d="M23 9L16 17L9 9H23Z" stroke="white" stroke-linecap="round" stroke-linejoin="round"/>
<path d="M31 24.3871V2.6129C31 2.18513 30.8379 1.77489 30.5494 1.47241C30.2609 1.16993 29.8696 1 29.4615 1H2.53846C2.13044 1 1.73912 1.16993 1.4506 1.47241C1.16209 1.77489 1 2.18513 1 2.6129V24.3871C1 24.8149 1.16209 25.2251 1.4506 25.5276C1.73912 25.8301 2.13044 26 2.53846 26H29.4615C29.8696 26 30.2609 25.8301 30.5494 25.5276C30.8379 25.2251 31 24.8149 31 24.3871Z" stroke="white" stroke-linecap="round" stroke-linejoin="round"/>
</svg>
