<svg width="31" height="29" viewBox="0 0 31 29" fill="none" xmlns="http://www.w3.org/2000/svg">
<path d="M24.5205 5.00014C24.2238 4.9961 23.9326 5.08012 23.6838 5.24155C23.4349 5.40299 23.2394 5.63461 23.1222 5.90711C23.0049 6.17961 22.9711 6.48077 23.025 6.77249C23.0789 7.06421 23.218 7.33341 23.4249 7.54603C23.6318 7.75866 23.8971 7.90516 24.1873 7.96702C24.4774 8.02889 24.7794 8.00333 25.055 7.89358C25.3306 7.78383 25.5675 7.59482 25.7357 7.35045C25.9039 7.10608 25.9959 6.81732 26 6.52069V6.47959C25.9964 6.08832 25.8394 5.71409 25.5627 5.43741C25.286 5.16073 24.9118 5.00371 24.5205 5.00014Z" stroke="white" stroke-linecap="round" stroke-linejoin="round"/>
<path d="M28.3976 1.00047H2.52426C2.11645 1.00996 1.72877 1.16749 1.44399 1.43943C1.15921 1.71136 0.999873 2.07617 1 2.45597V26.5445C1 26.9305 1.16471 27.3007 1.45789 27.5737C1.75108 27.8467 2.14872 28 2.56334 28H28.4367C28.8513 28 29.2489 27.8467 29.5421 27.5737C29.8353 27.3007 30 26.9305 30 26.5445V2.41958C29.9949 2.22842 29.9495 2.04007 29.8662 1.86528C29.7829 1.69049 29.6634 1.53269 29.5146 1.40091C29.3658 1.26912 29.1906 1.16592 28.9989 1.09721C28.8072 1.0285 28.6029 0.995627 28.3976 1.00047Z" stroke="white" stroke-linecap="round" stroke-linejoin="round"/>
<path d="M15.5 8C14.2144 8 12.9577 8.38122 11.8888 9.09545C10.8199 9.80968 9.98676 10.8248 9.49479 12.0126C9.00282 13.2003 8.87409 14.5072 9.1249 15.7681C9.3757 17.029 9.99477 18.1872 10.9038 19.0962C11.8128 20.0052 12.971 20.6243 14.2319 20.8751C15.4928 21.1259 16.7997 20.9972 17.9874 20.5052C19.1752 20.0132 20.1903 19.1801 20.9046 18.1112C21.6188 17.0423 22 15.7856 22 14.5C22 12.7761 21.3152 11.1228 20.0962 9.9038C18.8772 8.68482 17.2239 8 15.5 8Z" stroke="white" stroke-linecap="round" stroke-linejoin="round"/>
</svg>
