<svg width="48" height="48" viewBox="0 0 48 48" fill="none" xmlns="http://www.w3.org/2000/svg">
<path d="M35.38 10.46C34.9469 10.4541 34.5218 10.5767 34.1584 10.8124C33.795 11.0481 33.5097 11.3863 33.3385 11.7842C33.1673 12.182 33.1179 12.6217 33.1966 13.0476C33.2753 13.4735 33.4785 13.8666 33.7805 14.177C34.0826 14.4874 34.4699 14.7013 34.8935 14.7916C35.3171 14.882 35.758 14.8446 36.1603 14.6844C36.5627 14.5242 36.9086 14.2482 37.1542 13.8914C37.3997 13.5346 37.534 13.1131 37.5399 12.68V12.62C37.5347 12.0487 37.3055 11.5024 36.9015 11.0984C36.4976 10.6944 35.9512 10.4652 35.38 10.46Z" stroke="white" stroke-linecap="round" stroke-linejoin="round"/>
<path d="M40.55 5.50003H7.45C6.92828 5.51308 6.43233 5.72954 6.068 6.1032C5.70367 6.47687 5.49984 6.97815 5.5 7.50003V40.6C5.5 41.1305 5.71071 41.6392 6.08579 42.0142C6.46086 42.3893 6.96957 42.6 7.5 42.6H40.6C41.1304 42.6 41.6391 42.3893 42.0142 42.0142C42.3893 41.6392 42.6 41.1305 42.6 40.6V7.45003C42.5935 7.18736 42.5353 6.92854 42.4288 6.68837C42.3222 6.44819 42.1694 6.23136 41.979 6.05027C41.7887 5.86918 41.5645 5.72738 41.3193 5.63297C41.0741 5.53855 40.8127 5.49338 40.55 5.50003Z" stroke="white" stroke-linecap="round" stroke-linejoin="round"/>
<path d="M24 15.72C22.3623 15.72 20.7615 16.2056 19.3999 17.1154C18.0382 18.0252 16.9769 19.3184 16.3503 20.8314C15.7236 22.3443 15.5596 24.0092 15.8791 25.6153C16.1986 27.2215 16.9872 28.6968 18.1451 29.8548C19.3031 31.0128 20.7785 31.8014 22.3846 32.1209C23.9908 32.4404 25.6556 32.2764 27.1686 31.6497C28.6816 31.023 29.9747 29.9617 30.8845 28.6001C31.7944 27.2385 32.28 25.6376 32.28 24C32.28 21.804 31.4076 19.6979 29.8548 18.1451C28.302 16.5923 26.196 15.72 24 15.72Z" stroke="white" stroke-linecap="round" stroke-linejoin="round"/>
</svg>
