<svg width="31" height="28" viewBox="0 0 31 28" fill="none" xmlns="http://www.w3.org/2000/svg">
<path d="M15.2621 27V10.4966C15.2621 10.0368 15.3618 9.58156 15.5556 9.15689C15.7493 8.73222 16.0333 8.34646 16.3913 8.02168C16.7492 7.69691 17.1741 7.4395 17.6417 7.26418C18.1092 7.08887 18.6101 6.9991 19.1159 7.00001C21.0048 7.00001 22.1883 7.51035 23 8.46208M12 13.7517H19.7" stroke="white" stroke-linecap="round" stroke-linejoin="round"/>
<path d="M2.56587 1C2.15058 1 1.75229 1.14807 1.45863 1.41163C1.16498 1.6752 1 2.03267 1 2.40541V25.5946C1 25.9673 1.16498 26.3248 1.45863 26.5884C1.75229 26.8519 2.15058 27 2.56587 27H28.4341C28.8494 27 29.2477 26.8519 29.5414 26.5884C29.835 26.3248 30 25.9673 30 25.5946V2.40541C30 2.03267 29.835 1.6752 29.5414 1.41163C29.2477 1.14807 28.8494 1 28.4341 1H2.56587Z" stroke="white" stroke-linecap="round" stroke-linejoin="round"/>
</svg>
